<svg xmlns="http://www.w3.org/2000/svg" viewBox="0 0 130 60"><g data-name="Layer 2"><g data-name="Layer 1"><path d="M53.8,24.1c-2.6-1.7-3.8-2.8-3.8-3.7V19.1a1.68,1.68,0,0,1,.3-1.2,1.22,1.22,0,0,1,.9-.3h0a1.14,1.14,0,0,1,.8.3c.4.3.4,1,.4,1.4v2.6h5.5V19.1c0-3-2.1-4.3-6.8-4.3s-7,1.4-7,4.3V21c0,1.4,1.6,3.1,4.5,4.8,3.4,2,3.8,3,3.8,3.8v1.3a1.81,1.81,0,0,1-.3,1.3,1.33,1.33,0,0,1-1,.3c-1.3,0-1.5-.5-1.5-1.5V27.4H44.1v3.8c0,2.9,2.3,4.3,7.1,4.3s7-1.4,7-4.3V28.7C58.3,27.2,56.6,25.9,53.8,24.1Z" fill="#018136" /><path d="M85.2,24.1c-2.6-1.7-3.8-2.8-3.8-3.7V19.1a1.68,1.68,0,0,1,.3-1.2,1.22,1.22,0,0,1,.9-.3h0a1.14,1.14,0,0,1,.8.3c.4.3.4,1,.4,1.4v2.6h5.5V19.1c0-3-2.1-4.3-6.8-4.3s-7,1.4-7,4.3V21c0,1.9,1.4,3,4.5,4.8,3.4,2,3.8,3,3.8,3.8v1.3a1.81,1.81,0,0,1-.3,1.3,1.33,1.33,0,0,1-1,.3C81.2,32.5,81,32,81,31V27.4H75.5v3.8c0,2.9,2.3,4.3,7.1,4.3s7-1.4,7-4.3V28.7C89.7,26.9,88.1,25.9,85.2,24.1Z" fill="#018136" /><path d="M68.6,30.7c0,.9-.2,1.7-1.5,1.7s-1.5-.8-1.5-1.7V15.1H60V31.2c0,2.9,2.4,4.3,7.1,4.3s7.2-1.5,7.2-4.3V15.1H68.6" fill="#018136" /><path d="M91.5,35.3h12.4V32.5H97.5V25.8h5.4V23.7H97.5V18h6.4V15.2H91.5" fill="#018136" /><path d="M110.8,17.9h1.1a1.22,1.22,0,0,1,.9.3,3,3,0,0,1,.4,1.9v2.5c0,1.3,0,2-.8,2.2a3.45,3.45,0,0,1-1.2.1h-.5v-7Zm1.6-2.8h-7.5V35.2h5.8V27.5h.3c5.2,0,7.8-1.1,7.9-3.3V19.4C119,16.5,116.9,15.1,112.4,15.1Z" fill="#018136" /><path d="M44,42.2l.6-.1a1.42,1.42,0,0,0,.2.6,1,1,0,0,0,.5.4,1.7,1.7,0,0,0,.7.1c.2,0,.5,0,.6-.1a1.38,1.38,0,0,0,.4-.3.6.6,0,0,0,.1-.4c0-.2,0-.3-.1-.4a1.38,1.38,0,0,0-.4-.3c-.1,0-.4-.1-.9-.2a3,3,0,0,1-.9-.3,1.21,1.21,0,0,1-.5-.5,1.42,1.42,0,0,1-.2-.6,1.85,1.85,0,0,1,.2-.7,1,1,0,0,1,.6-.5,2.92,2.92,0,0,1,.9-.2,2,2,0,0,1,.9.2,1,1,0,0,1,.6.5,1.88,1.88,0,0,1,.2.8h-.6a.91.91,0,0,0-.3-.7,1.08,1.08,0,0,0-.8-.2,1.29,1.29,0,0,0-.8.2.55.55,0,0,0-.3.5.52.52,0,0,0,.2.4,2.26,2.26,0,0,0,1,.3A5.31,5.31,0,0,1,47,41a1,1,0,0,1,.6.5,1.32,1.32,0,0,1,0,1.4,1.47,1.47,0,0,1-.6.5,2.92,2.92,0,0,1-.9.2,3.59,3.59,0,0,1-1.1-.2,1.34,1.34,0,0,1-.7-.6C44.1,42.8,44,42.5,44,42.2Z" /><path d="M51.1,43.8v-.5a1.25,1.25,0,0,1-1.1.6,1.27,1.27,0,0,1-.6-.1,1.38,1.38,0,0,1-.4-.3c-.1-.1-.1-.3-.2-.4V40.3h.6v2.5a.52.52,0,0,0,.2.4.75.75,0,0,0,.5.1.9.9,0,0,0,.5-.1c.2-.1.3-.2.3-.4a1.48,1.48,0,0,0,.1-.7V40.2h.6v3.5h-.5Z" /><path d="M52.8,45.1V40.3h.5v.5c.1-.2.3-.3.4-.4a1.27,1.27,0,0,1,.6-.1,1.88,1.88,0,0,1,.8.2,2.65,2.65,0,0,1,.5.6,2.92,2.92,0,0,1,.2.9,3,3,0,0,1-.2,1,1.34,1.34,0,0,1-.6.7,1.08,1.08,0,0,1-.8.2.75.75,0,0,1-.5-.1,1.38,1.38,0,0,1-.4-.3v1.7h-.5Zm.6-3.1a1.33,1.33,0,0,0,.3,1,1,1,0,0,0,1.4,0,1.82,1.82,0,0,0,0-2,.91.91,0,0,0-.7-.3.75.75,0,0,0-.7.4C53.4,41.2,53.4,41.6,53.4,42Z" /><path d="M59.2,42.6l.6.1a1.58,1.58,0,0,1-.5.8,1.69,1.69,0,0,1-1,.3,1.66,1.66,0,0,1-1.2-.5,1.84,1.84,0,0,1-.4-1.3,2.17,2.17,0,0,1,.5-1.4,1.66,1.66,0,0,1,1.2-.5,1.43,1.43,0,0,1,1.1.5,1.84,1.84,0,0,1,.4,1.3v.2H57.3a1.22,1.22,0,0,0,.3.9.91.91,0,0,0,.7.3,1.42,1.42,0,0,0,.6-.2C59,43.1,59.1,42.9,59.2,42.6Zm-2-.9h2A1.45,1.45,0,0,0,59,41a1,1,0,0,0-1.4,0C57.4,41.1,57.3,41.4,57.2,41.7Z" /><path d="M60.8,43.8V40.3h.5v.5a2.18,2.18,0,0,1,.4-.5c.1-.1.2-.1.4-.1a1.42,1.42,0,0,1,.6.2l-.2.5a.6.6,0,0,0-.4-.1.37.37,0,0,0-.3.1c-.1.1-.2.2-.2.3a1.48,1.48,0,0,0-.1.7v1.8h-.7Z" /><path d="M63.2,39.6v-.7h.6v.7Zm0,4.2V40.3h.6v3.5Z" /><path d="M64.9,43.8V40.3h.5v.5a1.25,1.25,0,0,1,1.1-.6,1.27,1.27,0,0,1,.6.1,1.38,1.38,0,0,1,.4.3.76.76,0,0,1,.2.4v2.8h-.6V41.7a.75.75,0,0,0-.1-.5c0-.1-.1-.2-.2-.3a.6.6,0,0,0-.4-.1,1.45,1.45,0,0,0-.7.2,1.22,1.22,0,0,0-.3.9v1.9Z" /><path d="M70.2,43.2l.1.5c-.2,0-.3.1-.4.1a.75.75,0,0,1-.5-.1l-.3-.3a3.55,3.55,0,0,1-.1-.7v-2h-.4v-.5H69v-.9l.6-.4v1.2h.6v.5h-.6v2.3l.1.1h.2C70,43.2,70.1,43.2,70.2,43.2Z" /><path d="M73.3,42.6l.6.1a1.58,1.58,0,0,1-.5.8,1.69,1.69,0,0,1-1,.3,1.66,1.66,0,0,1-1.2-.5,1.84,1.84,0,0,1-.4-1.3,2.17,2.17,0,0,1,.5-1.4,1.66,1.66,0,0,1,1.2-.5,1.43,1.43,0,0,1,1.1.5,1.84,1.84,0,0,1,.4,1.3v.2H71.4a1.22,1.22,0,0,0,.3.9.91.91,0,0,0,.7.3,1.42,1.42,0,0,0,.6-.2C73.1,43.1,73.3,42.9,73.3,42.6Zm-1.9-.9h2a1.45,1.45,0,0,0-.2-.7,1,1,0,0,0-1.4,0A.67.67,0,0,0,71.4,41.7Z" /><path d="M74.9,43.8V40.3h.5v.5a1.25,1.25,0,0,1,1.1-.6,1.27,1.27,0,0,1,.6.1,1.38,1.38,0,0,1,.4.3.76.76,0,0,1,.2.4v2.8h-.6V41.7a.75.75,0,0,0-.1-.5c0-.1-.1-.2-.2-.3a.6.6,0,0,0-.4-.1,1.45,1.45,0,0,0-.7.2,1.22,1.22,0,0,0-.3.9v1.9Z" /><path d="M81.2,43.8v-.4a1.23,1.23,0,0,1-1,.5,2.35,2.35,0,0,1-.8-.2,2.65,2.65,0,0,1-.5-.6,3,3,0,0,1-.2-1,2.39,2.39,0,0,1,.2-.9,1.79,1.79,0,0,1,.5-.7,1.08,1.08,0,0,1,.8-.2,1.27,1.27,0,0,1,.6.1,1.38,1.38,0,0,1,.4.3V39h.6v4.8ZM79.3,42a1.49,1.49,0,0,0,.3,1A1,1,0,0,0,81,43a1.33,1.33,0,0,0,.3-1,1.8,1.8,0,0,0-.3-1.1,1,1,0,0,0-1.4,0A1.8,1.8,0,0,0,79.3,42Z" /><path d="M85.3,42.6l.6.1a1.58,1.58,0,0,1-.5.8,1.69,1.69,0,0,1-1,.3,1.66,1.66,0,0,1-1.2-.5,1.84,1.84,0,0,1-.4-1.3,2.17,2.17,0,0,1,.5-1.4,1.66,1.66,0,0,1,1.2-.5,1.43,1.43,0,0,1,1.1.5,1.84,1.84,0,0,1,.4,1.3v.2H83.4a1.22,1.22,0,0,0,.3.9.91.91,0,0,0,.7.3,1.42,1.42,0,0,0,.6-.2C85.1,43.1,85.2,42.9,85.3,42.6Zm-2-.9h2a1.45,1.45,0,0,0-.2-.7,1,1,0,0,0-1.4,0A.67.67,0,0,0,83.3,41.7Zm1-2.4-.4.6h-.7l.7-.9h.6l.7.9h-.7Z" /><path d="M86.8,43.8V40.3h.5v.5a1.25,1.25,0,0,1,1.1-.6,1.27,1.27,0,0,1,.6.1,1.38,1.38,0,0,1,.4.3.76.76,0,0,1,.2.4v2.8H89V41.7a.75.75,0,0,0-.1-.5c0-.1-.1-.2-.2-.3a.6.6,0,0,0-.4-.1,1.45,1.45,0,0,0-.7.2,1.22,1.22,0,0,0-.3.9v1.9Z" /><path d="M93.1,42.5l.6.1a1.35,1.35,0,0,1-.5.9,1.69,1.69,0,0,1-1,.3,1.66,1.66,0,0,1-1.2-.5,1.84,1.84,0,0,1-.4-1.3,3,3,0,0,1,.2-1,.9.9,0,0,1,.6-.6,2.35,2.35,0,0,1,.8-.2,1.22,1.22,0,0,1,.9.3,2.18,2.18,0,0,1,.5.8l-.6.1a2.19,2.19,0,0,0-.3-.5.76.76,0,0,0-.5-.2.91.91,0,0,0-.7.3,1.49,1.49,0,0,0-.3,1,1.33,1.33,0,0,0,.3,1,.91.91,0,0,0,.7.3,1.42,1.42,0,0,0,.6-.2A.6.6,0,0,0,93.1,42.5Z" /><path d="M94.4,39.6v-.7H95v.7Zm0,4.2V40.3H95v3.5Z" /><path d="M98.4,43.3a2.09,2.09,0,0,1-.6.4,1.48,1.48,0,0,1-.7.1,1.22,1.22,0,0,1-.9-.3,1.07,1.07,0,0,1-.2-1.2c.1-.1.2-.3.3-.3a.76.76,0,0,1,.4-.2,4.33,4.33,0,0,1,.5-.1c.5-.1.8-.1,1.1-.2v-.2a.76.76,0,0,0-.2-.5,1.45,1.45,0,0,0-.7-.2,3.54,3.54,0,0,0-.6.1,2.19,2.19,0,0,0-.3.5l-.6-.1c.1-.2.1-.4.3-.6a.55.55,0,0,1,.5-.3,2,2,0,0,1,.8-.1,1.48,1.48,0,0,1,.7.1,1.38,1.38,0,0,1,.4.3.52.52,0,0,1,.2.4v2.3a.76.76,0,0,0,.2.4h-.6ZM98.3,42a2.15,2.15,0,0,1-1,.2,4.33,4.33,0,0,0-.5.1.22.22,0,0,0-.2.2.37.37,0,0,0-.1.3.52.52,0,0,0,.2.4.76.76,0,0,0,.5.2.73.73,0,0,0,.6-.2.78.78,0,0,0,.4-.4c.1-.1.1-.3.1-.6Z" /><path d="M46.4,50.8v-.4a1.23,1.23,0,0,1-1,.5,2.35,2.35,0,0,1-.8-.2,2.65,2.65,0,0,1-.5-.6,3,3,0,0,1-.2-1,2.39,2.39,0,0,1,.2-.9,1.79,1.79,0,0,1,.5-.7,1.08,1.08,0,0,1,.8-.2,1.27,1.27,0,0,1,.6.1,1.38,1.38,0,0,1,.4.3V46H47v4.8ZM44.5,49a1.49,1.49,0,0,0,.3,1,1,1,0,0,0,1.4,0,1.33,1.33,0,0,0,.3-1,1.8,1.8,0,0,0-.3-1.1,1,1,0,0,0-1.4,0A2,2,0,0,0,44.5,49Z" /><path d="M50.5,49.6l.6.1a1.58,1.58,0,0,1-.5.8,1.69,1.69,0,0,1-1,.3,1.66,1.66,0,0,1-1.2-.5A1.84,1.84,0,0,1,48,49a2.17,2.17,0,0,1,.5-1.4,1.66,1.66,0,0,1,1.2-.5,1.43,1.43,0,0,1,1.1.5,1.84,1.84,0,0,1,.4,1.3v.2H48.6a1.22,1.22,0,0,0,.3.9.91.91,0,0,0,.7.3,1.42,1.42,0,0,0,.6-.2C50.3,50.1,50.4,49.9,50.5,49.6Zm-2-.9h2a1.45,1.45,0,0,0-.2-.7,1,1,0,0,0-1.4,0A.84.84,0,0,0,48.5,48.7Z" /><path d="M54,49.2l.6-.1a1.42,1.42,0,0,0,.2.6,1,1,0,0,0,.5.4,1.7,1.7,0,0,0,.7.1c.2,0,.5,0,.6-.1a1.38,1.38,0,0,0,.4-.3.6.6,0,0,0,.1-.4c0-.2,0-.3-.1-.4a1.38,1.38,0,0,0-.4-.3c-.1,0-.4-.1-.9-.2a3,3,0,0,1-.9-.3,1.21,1.21,0,0,1-.5-.5,1.42,1.42,0,0,1-.2-.6,1.85,1.85,0,0,1,.2-.7,1,1,0,0,1,.6-.5,2.92,2.92,0,0,1,.9-.2,2,2,0,0,1,.9.2,1,1,0,0,1,.6.5,1.88,1.88,0,0,1,.2.8h-.6a.91.91,0,0,0-.3-.7,1.08,1.08,0,0,0-.8-.2,1.29,1.29,0,0,0-.8.2.55.55,0,0,0-.3.5.52.52,0,0,0,.2.4,2.26,2.26,0,0,0,1,.3A5.31,5.31,0,0,1,57,48a1,1,0,0,1,.6.5,1.33,1.33,0,0,1,0,1.4,1.47,1.47,0,0,1-.6.5,2.92,2.92,0,0,1-.9.2,3.59,3.59,0,0,1-1.1-.2,1.34,1.34,0,0,1-.7-.6C54.1,49.8,54,49.5,54,49.2Z" /><path d="M61.3,49.6l.6.1a1.58,1.58,0,0,1-.5.8,1.69,1.69,0,0,1-1,.3,1.66,1.66,0,0,1-1.2-.5,1.84,1.84,0,0,1-.4-1.3,2.17,2.17,0,0,1,.5-1.4,1.66,1.66,0,0,1,1.2-.5,1.43,1.43,0,0,1,1.1.5,1.84,1.84,0,0,1,.4,1.3v.2H59.4a1.22,1.22,0,0,0,.3.9.91.91,0,0,0,.7.3.88.88,0,0,0,.9-.7Zm-2-.9h2a1.45,1.45,0,0,0-.2-.7,1,1,0,0,0-1.4,0A.67.67,0,0,0,59.3,48.7Z" /><path d="M62.7,51.1l.6.1a.52.52,0,0,0,.2.4,1,1,0,0,0,1.2,0,2.19,2.19,0,0,0,.3-.5v-.8a1.39,1.39,0,0,1-1,.5,1.29,1.29,0,0,1-1.1-.5,1.75,1.75,0,0,1-.4-1.2,2.92,2.92,0,0,1,.2-.9,1.79,1.79,0,0,1,.5-.7,1.08,1.08,0,0,1,.8-.2,1.23,1.23,0,0,1,1,.5v-.4h.5v3a3.73,3.73,0,0,1-.2,1.2,1.21,1.21,0,0,1-.5.5,2,2,0,0,1-.9.2,1.49,1.49,0,0,1-1-.3A2.92,2.92,0,0,1,62.7,51.1Zm.5-2.1a1.33,1.33,0,0,0,.3,1,1,1,0,0,0,1.4,0,1.33,1.33,0,0,0,.3-1,1.69,1.69,0,0,0-.3-1,1,1,0,0,0-1.4,0A1.33,1.33,0,0,0,63.2,49Z" /><path d="M69.1,50.8v-.5a1.25,1.25,0,0,1-1.1.6,1.27,1.27,0,0,1-.6-.1,1.38,1.38,0,0,1-.4-.3c-.1-.1-.1-.3-.2-.4V47.3h.6v2.5a.52.52,0,0,0,.2.4.6.6,0,0,0,.4.1.9.9,0,0,0,.5-.1c.2-.1.3-.2.3-.4a1.48,1.48,0,0,0,.1-.7V47.2h.6v3.5h-.4Z" /><path d="M70.8,50.8V47.3h.5v.5a2.18,2.18,0,0,1,.4-.5c.1-.1.2-.1.4-.1a1.42,1.42,0,0,1,.6.2l-.2.5a.6.6,0,0,0-.4-.1.37.37,0,0,0-.3.1c-.1.1-.2.2-.2.3a1.48,1.48,0,0,0-.1.7v1.8h-.7Z" /><path d="M73,49a2,2,0,0,1,.5-1.4,1.5,1.5,0,0,1,1.1-.4,1.66,1.66,0,0,1,1.2.5,1.73,1.73,0,0,1,.5,1.3,3.09,3.09,0,0,1-.2,1.1.9.9,0,0,1-.6.6,2.35,2.35,0,0,1-.8.2,1.66,1.66,0,0,1-1.2-.5A2,2,0,0,1,73,49Zm.6,0a1.49,1.49,0,0,0,.3,1,1,1,0,0,0,1.4,0,1.82,1.82,0,0,0,0-2,1,1,0,0,0-1.4,0A1.49,1.49,0,0,0,73.6,49Z" /><path d="M77,49.7l.6-.1a.55.55,0,0,0,.3.5,1.42,1.42,0,0,0,.6.2.85.85,0,0,0,.6-.2.52.52,0,0,0,.2-.4c0-.1-.1-.2-.2-.3s-.3-.1-.6-.2a4.65,4.65,0,0,1-.9-.3,1.38,1.38,0,0,1-.4-.3.75.75,0,0,1-.1-.5c0-.2,0-.3.1-.4l.3-.3c.1-.1.2-.1.4-.2s.3-.1.5-.1a1.48,1.48,0,0,1,.7.1,2.19,2.19,0,0,1,.5.3.76.76,0,0,1,.2.5l-.6.1a.52.52,0,0,0-.2-.4.76.76,0,0,0-.5-.2c-.3,0-.5,0-.6.1s-.2.2-.2.3,0,.1.1.2.1.1.2.2.2.1.5.2a4.65,4.65,0,0,1,.9.3,1.38,1.38,0,0,1,.4.3.75.75,0,0,1,.1.5,1.42,1.42,0,0,1-.2.6,1,1,0,0,1-.5.4,1.7,1.7,0,0,1-.7.1,1.33,1.33,0,0,1-1-.3C77.2,50.4,77,50.1,77,49.7Z" /><path d="M82.9,50.8V46h2.5a1.42,1.42,0,0,1,.6.2,1,1,0,0,1,.4.5,1.48,1.48,0,0,1,.1.7,1.16,1.16,0,0,1-.4,1,1.81,1.81,0,0,1-1.4.4H83.5v2Zm.7-2.6h1.2a2,2,0,0,0,.9-.2.86.86,0,0,0,.3-.6.76.76,0,0,0-.2-.5,1.38,1.38,0,0,0-.4-.3H83.6Z" /><path d="M87.6,50.8V47.3h.5v.5a2.18,2.18,0,0,1,.4-.5c.1-.1.2-.1.4-.1a1.42,1.42,0,0,1,.6.2l-.2.5a.6.6,0,0,0-.4-.1.37.37,0,0,0-.3.1c-.1.1-.2.2-.2.3a1.48,1.48,0,0,0-.1.7v1.8h-.7Z" /><path d="M90.1,46.6v-.7h.6v.7Zm0,4.2V47.3h.6v3.5Z" /><path d="M92.7,50.8l-1.3-3.5H92l.8,2.1a1.85,1.85,0,0,1,.2.7,6.37,6.37,0,0,0,.2-.7l.8-2.1h.6l-1.3,3.5Z" /><path d="M97.6,50.3a2.09,2.09,0,0,1-.6.4,1.48,1.48,0,0,1-.7.1,1.22,1.22,0,0,1-.9-.3,1.07,1.07,0,0,1-.2-1.2c.1-.1.2-.3.3-.3a.76.76,0,0,1,.4-.2,4.33,4.33,0,0,1,.5-.1c.5-.1.8-.1,1.1-.2v-.2a.76.76,0,0,0-.2-.5,1.45,1.45,0,0,0-.7-.2c-.3,0-.5,0-.6.1a2.19,2.19,0,0,0-.3.5l-.6-.1c.1-.2.1-.4.3-.6a.55.55,0,0,1,.5-.3,2,2,0,0,1,.8-.1,1.48,1.48,0,0,1,.7.1,1.38,1.38,0,0,1,.4.3.52.52,0,0,1,.2.4v2.3a.76.76,0,0,0,.2.4h-.6C97.7,50.6,97.6,50.5,97.6,50.3Zm0-1.3a2.15,2.15,0,0,1-1,.2,4.33,4.33,0,0,0-.5.1.22.22,0,0,0-.2.2.37.37,0,0,0-.1.3.52.52,0,0,0,.2.4.76.76,0,0,0,.5.2,1.27,1.27,0,0,0,.6-.1.78.78,0,0,0,.4-.4c.1-.1.1-.3.1-.6Z" /><path d="M101.6,50.8v-.4a1.23,1.23,0,0,1-1,.5,2.35,2.35,0,0,1-.8-.2,2.65,2.65,0,0,1-.5-.6,3,3,0,0,1-.2-1,2.39,2.39,0,0,1,.2-.9,1.79,1.79,0,0,1,.5-.7,1.08,1.08,0,0,1,.8-.2,1.27,1.27,0,0,1,.6.1,1.38,1.38,0,0,1,.4.3V46h.6v4.8ZM99.7,49a1.49,1.49,0,0,0,.3,1,1,1,0,0,0,1.4,0,1.33,1.33,0,0,0,.3-1,1.8,1.8,0,0,0-.3-1.1,1,1,0,0,0-1.4,0A2,2,0,0,0,99.7,49Z" /><path d="M103.1,49a2,2,0,0,1,.5-1.4,1.5,1.5,0,0,1,1.1-.4,1.66,1.66,0,0,1,1.2.5,1.73,1.73,0,0,1,.5,1.3,3.09,3.09,0,0,1-.2,1.1.9.9,0,0,1-.6.6,2.35,2.35,0,0,1-.8.2,1.66,1.66,0,0,1-1.2-.5A1.62,1.62,0,0,1,103.1,49Zm.6,0a1.49,1.49,0,0,0,.3,1,1,1,0,0,0,1.4,0,1.82,1.82,0,0,0,0-2,1,1,0,0,0-1.4,0A1.49,1.49,0,0,0,103.7,49Z" /><path d="M107,49.7l.6-.1a.55.55,0,0,0,.3.5,1.42,1.42,0,0,0,.6.2.85.85,0,0,0,.6-.2.52.52,0,0,0,.2-.4c0-.1-.1-.2-.2-.3s-.3-.1-.6-.2a4.65,4.65,0,0,1-.9-.3,1.38,1.38,0,0,1-.4-.3.75.75,0,0,1-.1-.5c0-.2,0-.3.1-.4l.3-.3c.1-.1.2-.1.4-.2s.3-.1.5-.1a1.48,1.48,0,0,1,.7.1,2.19,2.19,0,0,1,.5.3.76.76,0,0,1,.2.5l-.6.1a.52.52,0,0,0-.2-.4.76.76,0,0,0-.5-.2c-.3,0-.5,0-.6.1s-.2.2-.2.3,0,.1.1.2.1.1.2.2.2.1.5.2a4.65,4.65,0,0,1,.9.3,1.38,1.38,0,0,1,.4.3.75.75,0,0,1,.1.5,1.42,1.42,0,0,1-.2.6,1,1,0,0,1-.5.4,1.7,1.7,0,0,1-.7.1,1.33,1.33,0,0,1-1-.3C107.2,50.4,107.1,50.1,107,49.7Z" /><path d="M22.5,25.2l-5.8-5.7L11,25.3,16.8,31Z" fill="#018136" /><path d="M28.7,19l-5.8-5.7-5.7,5.8L23,24.8Z" fill="#018136" /><path d="M34.9,12.8,29.1,7.1l-5.7,5.8,5.8,5.7Z" fill="#018136" /><path d="M29.8,25.2l5.8,5.7,5.7-5.8-5.8-5.7Z" fill="#fdcd01" /><path d="M23.5,19l5.8,5.7L35,18.9l-5.8-5.7Z" fill="#fdcd01" /><path d="M23.5,31.5l5.8,5.7L35,31.4l-5.8-5.7Z" fill="#fdcd01" /><path d="M17.3,37.8l5.8,5.7,5.7-5.8L23,32Z" fill="#fdcd01" /><path d="M28.8,31.5,23,25.8l-5.7,5.8,5.8,5.7Z" fill="#018136" /></g></g></svg>